<?xml version="1.0" encoding="UTF-8"?>
<svg id="Layer_1" xmlns="http://www.w3.org/2000/svg" version="1.1" xmlns:cc="http://creativecommons.org/ns#" xmlns:dc="http://purl.org/dc/elements/1.1/" xmlns:inkscape="http://www.inkscape.org/namespaces/inkscape" xmlns:rdf="http://www.w3.org/1999/02/22-rdf-syntax-ns#" xmlns:sodipodi="http://sodipodi.sourceforge.net/DTD/sodipodi-0.dtd" xmlns:svg="http://www.w3.org/2000/svg" viewBox="0 0 517.35 188">
  <!-- Generator: Adobe Illustrator 29.8.2, SVG Export Plug-In . SVG Version: 2.1.1 Build 3)  -->
  <defs>
    <style>
      .st0 {
        font-family: Arial-ItalicMT, Arial;
        font-style: italic;
      }

      .st0, .st1, .st2 {
        isolation: isolate;
      }

      .st0, .st2 {
        font-size: 25.26px;
      }

      .st3 {
        fill: none;
        stroke: #595959;
        stroke-linejoin: round;
        stroke-width: 2.68px;
      }

      .st2 {
        font-family: ArialMT, Arial;
      }

      .st4 {
        fill: #90dcff;
      }

      .st4, .st5 {
        fill-rule: evenodd;
      }

      .st5 {
        fill-opacity: 0;
      }
    </style>
  </defs>
  <sodipodi:namedview id="namedview139" bordercolor="#666666" borderopacity="1" fit-margin-bottom="0" fit-margin-left="0" fit-margin-right="0" fit-margin-top="0" gridtolerance="10" guidetolerance="10" inkscape:current-layer="svg137" inkscape:cx="287.2286" inkscape:cy="95.457392" inkscape:document-rotation="0" inkscape:pageopacity="0" inkscape:pageshadow="2" inkscape:window-height="2067" inkscape:window-maximized="1" inkscape:window-width="3840" inkscape:window-x="0" inkscape:window-y="0" inkscape:zoom="2.7148148" objecttolerance="10" pagecolor="#ffffff" showgrid="false"/>
  <path id="path15" class="st4" d="M.25,74.94h517.35v70.62H.25S.25,74.94.25,74.94Z"/>
  <g id="g915">
    <path id="path53" class="st5" d="M227.64,8.38h0c5.16,3.63,7.87,8.68,7.54,14.05s-3.67,10.6-9.29,14.56l-19.44-13.69s21.19-14.92,21.19-14.92Z"/>
    <path id="path55" class="st5" d="M227.64,8.38h0c5.16,3.63,7.87,8.68,7.54,14.05s-3.67,10.6-9.29,14.56"/>
    <path id="path57" class="st3" d="M227.64,8.38h0c5.16,3.63,7.87,8.68,7.54,14.05s-3.67,10.6-9.29,14.56"/>
    <path id="path59" class="st5" d="M225.07,65.44h0c-5.16-3.63-7.87-8.68-7.54-14.05s3.67-10.6,9.29-14.56l19.44,13.69-21.19,14.92Z"/>
    <path id="path61" class="st5" d="M225.07,65.44h0c-5.16-3.63-7.87-8.68-7.54-14.05s3.67-10.6,9.29-14.56"/>
    <path id="path63" class="st3" d="M225.07,65.44h0c-5.16-3.63-7.87-8.68-7.54-14.05s3.67-10.6,9.29-14.56"/>
  </g>
  <g id="g924">
    <path id="path912" class="st5" d="M263.64,82.38h0c5.16,3.63,7.87,8.68,7.54,14.05s-3.67,10.6-9.29,14.56l-19.44-13.69,21.19-14.92Z"/>
    <path id="path914" class="st5" d="M263.64,82.38h0c5.16,3.63,7.87,8.68,7.54,14.05s-3.67,10.6-9.29,14.56"/>
    <path id="path916" class="st3" d="M263.64,82.38h0c5.16,3.63,7.87,8.68,7.54,14.05s-3.67,10.6-9.29,14.56"/>
    <path id="path918" class="st5" d="M261.07,139.44h0c-5.16-3.63-7.87-8.68-7.54-14.05.33-5.37,3.67-10.6,9.29-14.56l19.44,13.69-21.19,14.92Z"/>
    <path id="path920" class="st5" d="M261.07,139.44h0c-5.16-3.63-7.87-8.68-7.54-14.05.33-5.37,3.67-10.6,9.29-14.56"/>
    <path id="path922" class="st3" d="M261.07,139.44h0c-5.16-3.63-7.87-8.68-7.54-14.05.33-5.37,3.67-10.6,9.29-14.56"/>
  </g>
  <g id="g938">
    <path id="path926" class="st5" d="M341.64,82.38h0c5.16,3.63,7.87,8.68,7.54,14.05s-3.67,10.6-9.29,14.56l-19.44-13.69,21.19-14.92Z"/>
    <path id="path928" class="st5" d="M341.64,82.38h0c5.16,3.63,7.87,8.68,7.54,14.05s-3.67,10.6-9.29,14.56"/>
    <path id="path930" class="st3" d="M341.64,82.38h0c5.16,3.63,7.87,8.68,7.54,14.05s-3.67,10.6-9.29,14.56"/>
    <path id="path932" class="st5" d="M339.07,139.44h0c-5.16-3.63-7.87-8.68-7.54-14.05.33-5.37,3.67-10.6,9.29-14.56l19.44,13.69-21.19,14.92Z"/>
    <path id="path934" class="st5" d="M339.07,139.44h0c-5.16-3.63-7.87-8.68-7.54-14.05.33-5.37,3.67-10.6,9.29-14.56"/>
    <path id="path936" class="st3" d="M339.07,139.44h0c-5.16-3.63-7.87-8.68-7.54-14.05.33-5.37,3.67-10.6,9.29-14.56"/>
  </g>
  <g id="g952">
    <path id="path940" class="st5" d="M415.64,82.38h0c5.16,3.63,7.87,8.68,7.54,14.05s-3.67,10.6-9.29,14.56l-19.44-13.69,21.19-14.92Z"/>
    <path id="path942" class="st5" d="M415.64,82.38h0c5.16,3.63,7.87,8.68,7.54,14.05s-3.67,10.6-9.29,14.56"/>
    <path id="path944" class="st3" d="M415.64,82.38h0c5.16,3.63,7.87,8.68,7.54,14.05s-3.67,10.6-9.29,14.56"/>
    <path id="path946" class="st5" d="M413.07,139.44h0c-5.16-3.63-7.87-8.68-7.54-14.05.33-5.37,3.67-10.6,9.29-14.56l19.44,13.69-21.19,14.92Z"/>
    <path id="path948" class="st5" d="M413.07,139.44h0c-5.16-3.63-7.87-8.68-7.54-14.05.33-5.37,3.67-10.6,9.29-14.56"/>
    <path id="path950" class="st3" d="M413.07,139.44h0c-5.16-3.63-7.87-8.68-7.54-14.05.33-5.37,3.67-10.6,9.29-14.56"/>
  </g>
  <g id="g966">
    <path id="path954" class="st5" d="M489.64,82.38h0c5.16,3.63,7.87,8.68,7.54,14.05s-3.67,10.6-9.29,14.56l-19.44-13.69,21.19-14.92Z"/>
    <path id="path956" class="st5" d="M489.64,82.38h0c5.16,3.63,7.87,8.68,7.54,14.05s-3.67,10.6-9.29,14.56"/>
    <path id="path958" class="st3" d="M489.64,82.38h0c5.16,3.63,7.87,8.68,7.54,14.05s-3.67,10.6-9.29,14.56"/>
    <path id="path960" class="st5" d="M487.07,139.44h0c-5.16-3.63-7.87-8.68-7.54-14.05.33-5.37,3.67-10.6,9.29-14.56l19.44,13.69-21.19,14.92Z"/>
    <path id="path962" class="st5" d="M487.07,139.44h0c-5.16-3.63-7.87-8.68-7.54-14.05.33-5.37,3.67-10.6,9.29-14.56"/>
    <path id="path964" class="st3" d="M487.07,139.44h0c-5.16-3.63-7.87-8.68-7.54-14.05.33-5.37,3.67-10.6,9.29-14.56"/>
  </g>
  <g id="text984" class="st1">
    <g class="st1">
      <text class="st2" transform="translate(5.85 101.26)"><tspan x="0" y="0">parallel region</tspan></text>
      <text class="st0" transform="translate(5.85 131.58)"><tspan x="0" y="0">nthreads</tspan></text>
    </g>
  </g>
  <g id="g998">
    <path id="path986" class="st5" d="M341.64,82.38h0c5.16,3.63,7.87,8.68,7.54,14.05s-3.67,10.6-9.29,14.56l-19.44-13.69,21.19-14.92Z"/>
    <path id="path988" class="st5" d="M341.64,82.38h0c5.16,3.63,7.87,8.68,7.54,14.05s-3.67,10.6-9.29,14.56"/>
    <path id="path990" class="st3" d="M341.64,82.38h0c5.16,3.63,7.87,8.68,7.54,14.05s-3.67,10.6-9.29,14.56"/>
    <path id="path992" class="st5" d="M339.07,139.44h0c-5.16-3.63-7.87-8.68-7.54-14.05.33-5.37,3.67-10.6,9.29-14.56l19.44,13.69-21.19,14.92Z"/>
    <path id="path994" class="st5" d="M339.07,139.44h0c-5.16-3.63-7.87-8.68-7.54-14.05.33-5.37,3.67-10.6,9.29-14.56"/>
    <path id="path996" class="st3" d="M339.07,139.44h0c-5.16-3.63-7.87-8.68-7.54-14.05.33-5.37,3.67-10.6,9.29-14.56"/>
  </g>
  <g id="g1012">
    <path id="path1000" class="st5" d="M415.64,82.38h0c5.16,3.63,7.87,8.68,7.54,14.05s-3.67,10.6-9.29,14.56l-19.44-13.69,21.19-14.92Z"/>
    <path id="path1002" class="st5" d="M415.64,82.38h0c5.16,3.63,7.87,8.68,7.54,14.05s-3.67,10.6-9.29,14.56"/>
    <path id="path1004" class="st3" d="M415.64,82.38h0c5.16,3.63,7.87,8.68,7.54,14.05s-3.67,10.6-9.29,14.56"/>
    <path id="path1006" class="st5" d="M413.07,139.44h0c-5.16-3.63-7.87-8.68-7.54-14.05.33-5.37,3.67-10.6,9.29-14.56l19.44,13.69-21.19,14.92Z"/>
    <path id="path1008" class="st5" d="M413.07,139.44h0c-5.16-3.63-7.87-8.68-7.54-14.05.33-5.37,3.67-10.6,9.29-14.56"/>
    <path id="path1010" class="st3" d="M413.07,139.44h0c-5.16-3.63-7.87-8.68-7.54-14.05.33-5.37,3.67-10.6,9.29-14.56"/>
  </g>
  <g id="g1026">
    <path id="path1014" class="st5" d="M489.64,82.38h0c5.16,3.63,7.87,8.68,7.54,14.05s-3.67,10.6-9.29,14.56l-19.44-13.69,21.19-14.92Z"/>
    <path id="path1016" class="st5" d="M489.64,82.38h0c5.16,3.63,7.87,8.68,7.54,14.05s-3.67,10.6-9.29,14.56"/>
    <path id="path1018" class="st3" d="M489.64,82.38h0c5.16,3.63,7.87,8.68,7.54,14.05s-3.67,10.6-9.29,14.56"/>
    <path id="path1020" class="st5" d="M487.07,139.44h0c-5.16-3.63-7.87-8.68-7.54-14.05.33-5.37,3.67-10.6,9.29-14.56l19.44,13.69-21.19,14.92Z"/>
    <path id="path1022" class="st5" d="M487.07,139.44h0c-5.16-3.63-7.87-8.68-7.54-14.05.33-5.37,3.67-10.6,9.29-14.56"/>
    <path id="path1024" class="st3" d="M487.07,139.44h0c-5.16-3.63-7.87-8.68-7.54-14.05.33-5.37,3.67-10.6,9.29-14.56"/>
  </g>
  <g id="g1040">
    <path id="path1028" class="st5" d="M227.64,82.38h0c5.16,3.63,7.87,8.68,7.54,14.05s-3.67,10.6-9.29,14.56l-19.44-13.69,21.19-14.92Z"/>
    <path id="path1030" class="st5" d="M227.64,82.38h0c5.16,3.63,7.87,8.68,7.54,14.05s-3.67,10.6-9.29,14.56"/>
    <path id="path1032" class="st3" d="M227.64,82.38h0c5.16,3.63,7.87,8.68,7.54,14.05s-3.67,10.6-9.29,14.56"/>
    <path id="path1034" class="st5" d="M225.07,139.44h0c-5.16-3.63-7.87-8.68-7.54-14.05.33-5.37,3.67-10.6,9.29-14.56l19.44,13.69-21.19,14.92Z"/>
    <path id="path1036" class="st5" d="M225.07,139.44h0c-5.16-3.63-7.87-8.68-7.54-14.05.33-5.37,3.67-10.6,9.29-14.56"/>
    <path id="path1038" class="st3" d="M225.07,139.44h0c-5.16-3.63-7.87-8.68-7.54-14.05.33-5.37,3.67-10.6,9.29-14.56"/>
  </g>
  <g id="g1054">
    <path id="path1042" class="st5" d="M305.64,82.38h0c5.16,3.63,7.87,8.68,7.54,14.05s-3.67,10.6-9.29,14.56l-19.44-13.69,21.19-14.92Z"/>
    <path id="path1044" class="st5" d="M305.64,82.38h0c5.16,3.63,7.87,8.68,7.54,14.05s-3.67,10.6-9.29,14.56"/>
    <path id="path1046" class="st3" d="M305.64,82.38h0c5.16,3.63,7.87,8.68,7.54,14.05s-3.67,10.6-9.29,14.56"/>
    <path id="path1048" class="st5" d="M303.07,139.44h0c-5.16-3.63-7.87-8.68-7.54-14.05.33-5.37,3.67-10.6,9.29-14.56l19.44,13.69-21.19,14.92Z"/>
    <path id="path1050" class="st5" d="M303.07,139.44h0c-5.16-3.63-7.87-8.68-7.54-14.05.33-5.37,3.67-10.6,9.29-14.56"/>
    <path id="path1052" class="st3" d="M303.07,139.44h0c-5.16-3.63-7.87-8.68-7.54-14.05.33-5.37,3.67-10.6,9.29-14.56"/>
  </g>
  <g id="g1068">
    <path id="path1056" class="st5" d="M379.64,82.38h0c5.16,3.63,7.87,8.68,7.54,14.05s-3.67,10.6-9.29,14.56l-19.44-13.69,21.19-14.92Z"/>
    <path id="path1058" class="st5" d="M379.64,82.38h0c5.16,3.63,7.87,8.68,7.54,14.05s-3.67,10.6-9.29,14.56"/>
    <path id="path1060" class="st3" d="M379.64,82.38h0c5.16,3.63,7.87,8.68,7.54,14.05s-3.67,10.6-9.29,14.56"/>
    <path id="path1062" class="st5" d="M377.07,139.44h0c-5.16-3.63-7.87-8.68-7.54-14.05.33-5.37,3.67-10.6,9.29-14.56l19.44,13.69-21.19,14.92Z"/>
    <path id="path1064" class="st5" d="M377.07,139.44h0c-5.16-3.63-7.87-8.68-7.54-14.05.33-5.37,3.67-10.6,9.29-14.56"/>
    <path id="path1066" class="st3" d="M377.07,139.44h0c-5.16-3.63-7.87-8.68-7.54-14.05.33-5.37,3.67-10.6,9.29-14.56"/>
  </g>
  <g id="g1082">
    <path id="path1070" class="st5" d="M453.64,82.38h0c5.16,3.63,7.87,8.68,7.54,14.05s-3.67,10.6-9.29,14.56l-19.44-13.69,21.19-14.92Z"/>
    <path id="path1072" class="st5" d="M453.64,82.38h0c5.16,3.63,7.87,8.68,7.54,14.05s-3.67,10.6-9.29,14.56"/>
    <path id="path1074" class="st3" d="M453.64,82.38h0c5.16,3.63,7.87,8.68,7.54,14.05s-3.67,10.6-9.29,14.56"/>
    <path id="path1076" class="st5" d="M451.07,139.44h0c-5.16-3.63-7.87-8.68-7.54-14.05.33-5.37,3.67-10.6,9.29-14.56l19.44,13.69-21.19,14.92Z"/>
    <path id="path1078" class="st5" d="M451.07,139.44h0c-5.16-3.63-7.87-8.68-7.54-14.05.33-5.37,3.67-10.6,9.29-14.56"/>
    <path id="path1080" class="st3" d="M451.07,139.44h0c-5.16-3.63-7.87-8.68-7.54-14.05.33-5.37,3.67-10.6,9.29-14.56"/>
  </g>
  <g id="g1096">
    <path id="path1084" class="st5" d="M305.64,82.38h0c5.16,3.63,7.87,8.68,7.54,14.05s-3.67,10.6-9.29,14.56l-19.44-13.69,21.19-14.92Z"/>
    <path id="path1086" class="st5" d="M305.64,82.38h0c5.16,3.63,7.87,8.68,7.54,14.05s-3.67,10.6-9.29,14.56"/>
    <path id="path1088" class="st3" d="M305.64,82.38h0c5.16,3.63,7.87,8.68,7.54,14.05s-3.67,10.6-9.29,14.56"/>
    <path id="path1090" class="st5" d="M303.07,139.44h0c-5.16-3.63-7.87-8.68-7.54-14.05.33-5.37,3.67-10.6,9.29-14.56l19.44,13.69-21.19,14.92Z"/>
    <path id="path1092" class="st5" d="M303.07,139.44h0c-5.16-3.63-7.87-8.68-7.54-14.05.33-5.37,3.67-10.6,9.29-14.56"/>
    <path id="path1094" class="st3" d="M303.07,139.44h0c-5.16-3.63-7.87-8.68-7.54-14.05.33-5.37,3.67-10.6,9.29-14.56"/>
  </g>
  <g id="g1110">
    <path id="path1098" class="st5" d="M379.64,82.38h0c5.16,3.63,7.87,8.68,7.54,14.05s-3.67,10.6-9.29,14.56l-19.44-13.69,21.19-14.92Z"/>
    <path id="path1100" class="st5" d="M379.64,82.38h0c5.16,3.63,7.87,8.68,7.54,14.05s-3.67,10.6-9.29,14.56"/>
    <path id="path1102" class="st3" d="M379.64,82.38h0c5.16,3.63,7.87,8.68,7.54,14.05s-3.67,10.6-9.29,14.56"/>
    <path id="path1104" class="st5" d="M377.07,139.44h0c-5.16-3.63-7.87-8.68-7.54-14.05.33-5.37,3.67-10.6,9.29-14.56l19.44,13.69-21.19,14.92Z"/>
    <path id="path1106" class="st5" d="M377.07,139.44h0c-5.16-3.63-7.87-8.68-7.54-14.05.33-5.37,3.67-10.6,9.29-14.56"/>
    <path id="path1108" class="st3" d="M377.07,139.44h0c-5.16-3.63-7.87-8.68-7.54-14.05.33-5.37,3.67-10.6,9.29-14.56"/>
  </g>
  <g id="g1124">
    <path id="path1112" class="st5" d="M453.64,82.38h0c5.16,3.63,7.87,8.68,7.54,14.05s-3.67,10.6-9.29,14.56l-19.44-13.69,21.19-14.92Z"/>
    <path id="path1114" class="st5" d="M453.64,82.38h0c5.16,3.63,7.87,8.68,7.54,14.05s-3.67,10.6-9.29,14.56"/>
    <path id="path1116" class="st3" d="M453.64,82.38h0c5.16,3.63,7.87,8.68,7.54,14.05s-3.67,10.6-9.29,14.56"/>
    <path id="path1118" class="st5" d="M451.07,139.44h0c-5.16-3.63-7.87-8.68-7.54-14.05.33-5.37,3.67-10.6,9.29-14.56l19.44,13.69-21.19,14.92Z"/>
    <path id="path1120" class="st5" d="M451.07,139.44h0c-5.16-3.63-7.87-8.68-7.54-14.05.33-5.37,3.67-10.6,9.29-14.56"/>
    <path id="path1122" class="st3" d="M451.07,139.44h0c-5.16-3.63-7.87-8.68-7.54-14.05.33-5.37,3.67-10.6,9.29-14.56"/>
  </g>
  <g id="text9841" class="st1">
    <g class="st1">
      <text class="st2" transform="translate(247.04 31.87)"><tspan x="0" y="0">serial region</tspan></text>
      <text class="st0" transform="translate(247.04 62.19)"><tspan x="0" y="0">master thread</tspan></text>
    </g>
  </g>
  <path id="path974" class="st5" d="M234.02,367.36h0c-5.16-3.63-7.87-8.68-7.54-14.05s3.67-10.6,9.29-14.56l19.44,13.69-21.19,14.92h0Z"/>
  <path id="path976" class="st5" d="M234.02,367.36h0c-5.16-3.63-7.87-8.68-7.54-14.05s3.67-10.6,9.29-14.56"/>
  <g id="text98411" data-name="text9841" class="st1">
    <g class="st1">
      <text class="st2" transform="translate(217.5 173.92)"><tspan x="0" y="0">0</tspan></text>
      <text/>
    </g>
  </g>
  <text class="st2" transform="translate(253.5 173.92)"><tspan x="0" y="0">1</tspan></text>
  <text class="st2" transform="translate(472.26 173.92)"><tspan x="0" y="0">n-1</tspan></text>
  <text class="st2" transform="translate(358.45 174.22)"><tspan x="0" y="0">...</tspan></text>
</svg>